<svg xmlns="http://www.w3.org/2000/svg" height="38" width="38" viewBox="0 0 38 38" fill="none">
  <path d="M17.13 27.55L8.518 33.09a5.463 5.463 0 01-5.636.19C1.107 32.3-.001 30.463-.001 28.436V6.966A6.967 6.967 0 016.966 0h2.628a5.495 5.495 0 00-4.845 2.882 5.532 5.532 0 00.19 5.636l5.542 8.613 6.65 10.419z" fill="url(#paint0_linear)"/>
  <path d="M10.449 17.131L4.907 8.518a5.463 5.463 0 01-.19-5.636C5.699 1.108 7.535 0 9.562 0h21.47a6.967 6.967 0 016.966 6.966v2.629a5.495 5.495 0 00-2.881-4.845 5.532 5.532 0 00-5.637.19l-8.645 5.51L10.45 17.13z" fill="url(#paint1_linear)"/>
  <path d="M20.867 10.45l8.613-5.542a5.463 5.463 0 015.637-.19C36.89 5.7 38 7.536 38 9.563v21.47a6.967 6.967 0 01-6.967 6.966h-2.628a5.495 5.495 0 004.845-2.881 5.532 5.532 0 00-.19-5.637l-5.542-8.613-6.65-10.418z" fill="url(#paint2_linear)"/>
  <path d="M27.549 20.868l5.541 8.613a5.463 5.463 0 01.19 5.637c-.981 1.773-2.818 2.881-4.845 2.881H6.966A6.967 6.967 0 010 31.033v-2.629a5.495 5.495 0 002.882 4.845 5.532 5.532 0 005.636-.19l8.614-5.541 10.418-6.65z" fill="url(#paint3_linear)"/>
  <defs>
    <linearGradient id="paint0_linear" x1="-1.64" y1="3.695" x2="12.48" y2="28.406" gradientUnits="userSpaceOnUse">
      <stop stop-color="#78BEFF"/>
      <stop offset="1" stop-color="#5463F8"/>
    </linearGradient>
    <linearGradient id="paint1_linear" x1="30.957" y1=".079" x2="8.813" y2="13.237" gradientUnits="userSpaceOnUse">
      <stop stop-color="#ADF7D8"/>
      <stop offset="1" stop-color="#25BAAD"/>
    </linearGradient>
    <linearGradient id="paint2_linear" x1="38.613" y1="31.001" x2="23.85" y2="9.018" gradientUnits="userSpaceOnUse">
      <stop stop-color="#FFEF9C"/>
      <stop offset="1" stop-color="#F8BD4F"/>
    </linearGradient>
    <linearGradient id="paint3_linear" x1="-.004" y1="29.427" x2="33.949" y2="29.427" gradientUnits="userSpaceOnUse">
      <stop stop-color="#F79788"/>
      <stop offset="1" stop-color="#EF4A66"/>
    </linearGradient>
  </defs>
</svg>